<?xml version="1.0" standalone="no"?>
<!DOCTYPE svg PUBLIC "-//W3C//DTD SVG 20010904//EN"
        "http://www.w3.org/TR/2001/REC-SVG-20010904/DTD/svg10.dtd">
<svg version="1.0" xmlns="http://www.w3.org/2000/svg"
     width="512.000000pt" height="512.000000pt" viewBox="0 0 512.000000 512.000000"
     preserveAspectRatio="xMidYMid meet">

  <g transform="translate(0.000000,512.000000) scale(0.100000,-0.100000)"
     fill="#000000" stroke="none">
    <path d="M770 4467 c-132 -42 -173 -237 -73 -348 47 -52 106 -69 240 -69 143
0 370 -25 543 -60 782 -158 1471 -598 1952 -1247 187 -251 349 -562 452 -868
102 -298 166 -664 166 -939 0 -133 17 -192 69 -239 70 -63 164 -74 252 -29 45
22 59 36 82 81 24 48 27 66 27 146 0 51 -5 150 -10 221 -60 745 -325 1415
-794 2004 -123 154 -403 436 -551 554 -521 416 -1127 679 -1770 770 -241 34
-516 45 -585 23z"/>
    <path d="M779 2974 c-105 -32 -166 -162 -127 -275 31 -92 106 -139 223 -139
88 0 225 -15 330 -36 207 -41 484 -163 665 -291 121 -87 276 -242 363 -363 80
-113 195 -339 237 -467 53 -161 90 -375 90 -524 0 -115 33 -177 114 -215 91
-42 185 -27 252 40 58 58 67 108 54 296 -39 543 -241 992 -614 1366 -369 370
-819 573 -1356 614 -166 12 -174 12 -231 -6z"/>
    <path d="M930 1470 c-165 -61 -273 -200 -287 -371 -21 -254 202 -477 456 -456
176 15 322 132 375 302 28 88 19 211 -21 297 -44 93 -109 160 -201 205 -68 34
-83 38 -171 40 -77 3 -107 -1 -151 -17z"/>
  </g>
</svg>
